<svg width="704" height="1052" viewBox="0 0 704 1052" fill="none" xmlns="http://www.w3.org/2000/svg">
<g opacity="0.5">
<path d="M187.538 563.802C207.769 563.802 224.169 547.024 224.169 526.328C224.169 505.631 207.769 488.853 187.538 488.853C167.307 488.853 150.907 505.631 150.907 526.328C150.907 547.024 167.307 563.802 187.538 563.802Z" stroke="#260F92" stroke-opacity="0.49" stroke-width="2.6362" stroke-miterlimit="10"/>
<path d="M188.586 591.64C223.267 591.64 251.382 562.878 251.382 527.399C251.382 491.919 223.267 463.157 188.586 463.157C153.905 463.157 125.791 491.919 125.791 527.399C125.791 562.878 153.905 591.64 188.586 591.64Z" stroke="#260F92" stroke-opacity="0.49" stroke-width="2.6362" stroke-miterlimit="10"/>
<path d="M189.632 630.185C245.699 630.185 291.151 583.687 291.151 526.328C291.151 468.969 245.699 422.471 189.632 422.471C133.564 422.471 88.1123 468.969 88.1123 526.328C88.1123 583.687 133.564 630.185 189.632 630.185Z" stroke="#260F92" stroke-opacity="0.49" stroke-width="2.6362" stroke-miterlimit="10"/>
<path d="M190.68 662.305C264.666 662.305 324.643 600.947 324.643 525.257C324.643 449.567 264.666 388.208 190.68 388.208C116.693 388.208 56.7158 449.567 56.7158 525.257C56.7158 600.947 116.693 662.305 190.68 662.305Z" stroke="#260F92" stroke-opacity="0.49" stroke-width="2.6362" stroke-miterlimit="10"/>
<path d="M189.809 702.847C285.28 702.847 362.675 623.67 362.675 526C362.675 428.331 285.28 349.154 189.809 349.154C94.3379 349.154 16.9434 428.331 16.9434 526C16.9434 623.67 94.3379 702.847 189.809 702.847Z" stroke="#260F92" stroke-opacity="0.49" stroke-width="2.6362" stroke-miterlimit="10"/>
<path d="M190.185 746.366C309.15 746.366 405.59 647.704 405.59 526C405.59 404.295 309.15 305.634 190.185 305.634C71.2196 305.634 -25.2207 404.295 -25.2207 526C-25.2207 647.704 71.2196 746.366 190.185 746.366Z" stroke="#260F92" stroke-opacity="0.49" stroke-width="2.3673" stroke-miterlimit="10"/>
<path d="M190.183 789.886C332.642 789.886 448.128 671.74 448.128 526C448.128 380.261 332.642 262.115 190.183 262.115C47.7238 262.115 -67.7622 380.261 -67.7622 526C-67.7622 671.74 47.7238 789.886 190.183 789.886Z" stroke="#260F92" stroke-opacity="0.49" stroke-width="2.0984" stroke-miterlimit="10"/>
<path d="M190.185 833.405C356.138 833.405 490.67 695.775 490.67 526C490.67 356.225 356.138 218.595 190.185 218.595C24.2314 218.595 -110.3 356.225 -110.3 526C-110.3 695.775 24.2314 833.405 190.185 833.405Z" stroke="#260F92" stroke-opacity="0.49" stroke-width="1.8295" stroke-miterlimit="10"/>
<path d="M190.183 876.922C379.63 876.922 533.206 719.809 533.206 526C533.206 332.191 379.63 175.078 190.183 175.078C0.737167 175.078 -152.839 332.191 -152.839 526C-152.839 719.809 0.737167 876.922 190.183 876.922Z" stroke="#260F92" stroke-opacity="0.49" stroke-width="1.5606" stroke-miterlimit="10"/>
<path d="M190.18 920.444C403.122 920.444 575.745 743.845 575.745 526C575.745 308.155 403.122 131.556 190.18 131.556C-22.7611 131.556 -195.384 308.155 -195.384 526C-195.384 743.845 -22.7611 920.444 190.18 920.444Z" stroke="#260F92" stroke-opacity="0.49" stroke-width="1.2917" stroke-miterlimit="10"/>
<path d="M190.182 963.961C426.616 963.961 618.284 767.879 618.284 526C618.284 284.121 426.616 88.0388 190.182 88.0388C-46.2524 88.0388 -237.92 284.121 -237.92 526C-237.92 767.879 -46.2524 963.961 190.182 963.961Z" stroke="#260F92" stroke-opacity="0.49" stroke-width="1.0228" stroke-miterlimit="10"/>
<path d="M190.181 1007.48C450.11 1007.48 660.823 791.914 660.823 526C660.823 260.085 450.11 44.5192 190.181 44.5192C-69.7473 44.5192 -280.461 260.085 -280.461 526C-280.461 791.914 -69.7473 1007.48 190.181 1007.48Z" stroke="#260F92" stroke-opacity="0.49" stroke-width="0.7539" stroke-miterlimit="10"/>
<path d="M190.182 1051C473.604 1051 703.364 815.949 703.364 526C703.364 236.051 473.604 1 190.182 1C-93.2406 1 -323 236.051 -323 526C-323 815.949 -93.2406 1051 190.182 1051Z" stroke="#260F92" stroke-opacity="0.49" stroke-width="0.485" stroke-miterlimit="10"/>
</g>
</svg>
