<svg width="1065" height="1283" viewBox="0 0 1065 1283" fill="none" xmlns="http://www.w3.org/2000/svg">
<g opacity="0.5">
<path d="M710.326 687.618C738.434 687.618 761.22 667.15 761.22 641.9C761.22 616.65 738.434 596.181 710.326 596.181C682.218 596.181 659.433 616.65 659.433 641.9C659.433 667.15 682.218 687.618 710.326 687.618Z" stroke="white" stroke-opacity="0.25" stroke-width="2.6362" stroke-miterlimit="10"/>
<path d="M711.783 721.581C759.968 721.581 799.029 686.492 799.029 643.207C799.029 599.921 759.968 564.832 711.783 564.832C663.598 564.832 624.537 599.921 624.537 643.207C624.537 686.492 663.598 721.581 711.783 721.581Z" stroke="white" stroke-opacity="0.25" stroke-width="2.6362" stroke-miterlimit="10"/>
<path d="M713.236 768.606C791.134 768.606 854.284 711.878 854.284 641.9C854.284 571.922 791.134 515.194 713.236 515.194C635.337 515.194 572.188 571.922 572.188 641.9C572.188 711.878 635.337 768.606 713.236 768.606Z" stroke="white" stroke-opacity="0.25" stroke-width="2.6362" stroke-miterlimit="10"/>
<path d="M714.691 807.793C817.486 807.793 900.817 732.935 900.817 640.593C900.817 548.251 817.486 473.393 714.691 473.393C611.897 473.393 528.566 548.251 528.566 640.593C528.566 732.935 611.897 807.793 714.691 807.793Z" stroke="white" stroke-opacity="0.25" stroke-width="2.6362" stroke-miterlimit="10"/>
<path d="M713.482 857.253C846.127 857.253 953.657 760.657 953.657 641.5C953.657 522.343 846.127 425.748 713.482 425.748C580.837 425.748 473.308 522.343 473.308 641.5C473.308 760.657 580.837 857.253 713.482 857.253Z" stroke="white" stroke-opacity="0.25" stroke-width="2.6362" stroke-miterlimit="10"/>
<path d="M714.004 910.346C879.29 910.346 1013.28 789.98 1013.28 641.5C1013.28 493.02 879.29 372.653 714.004 372.653C548.717 372.653 414.726 493.02 414.726 641.5C414.726 789.98 548.717 910.346 714.004 910.346Z" stroke="white" stroke-opacity="0.25" stroke-width="2.3673" stroke-miterlimit="10"/>
<path d="M714.002 963.441C911.93 963.441 1072.38 819.303 1072.38 641.501C1072.38 463.698 911.93 319.56 714.002 319.56C516.073 319.56 355.62 463.698 355.62 641.501C355.62 819.303 516.073 963.441 714.002 963.441Z" stroke="white" stroke-opacity="0.25" stroke-width="2.0984" stroke-miterlimit="10"/>
<path d="M714.004 1016.53C944.574 1016.53 1131.49 848.625 1131.49 641.5C1131.49 434.374 944.574 266.466 714.004 266.466C483.433 266.466 296.519 434.374 296.519 641.5C296.519 848.625 483.433 1016.53 714.004 1016.53Z" stroke="white" stroke-opacity="0.25" stroke-width="1.8295" stroke-miterlimit="10"/>
<path d="M714.002 1069.62C977.213 1069.62 1190.59 877.947 1190.59 641.5C1190.59 405.053 977.213 213.375 714.002 213.375C450.791 213.375 237.416 405.053 237.416 641.5C237.416 877.947 450.791 1069.62 714.002 1069.62Z" stroke="white" stroke-opacity="0.25" stroke-width="1.5606" stroke-miterlimit="10"/>
<path d="M713.998 1122.72C1009.85 1122.72 1249.69 907.271 1249.69 641.5C1249.69 375.729 1009.85 160.278 713.998 160.278C418.143 160.278 178.306 375.729 178.306 641.5C178.306 907.271 418.143 1122.72 713.998 1122.72Z" stroke="white" stroke-opacity="0.25" stroke-width="1.2917" stroke-miterlimit="10"/>
<path d="M714 1175.81C1042.49 1175.81 1308.79 936.593 1308.79 641.5C1308.79 346.407 1042.49 107.188 714 107.188C385.505 107.188 119.207 346.407 119.207 641.5C119.207 936.593 385.505 1175.81 714 1175.81Z" stroke="white" stroke-opacity="0.25" stroke-width="1.0228" stroke-miterlimit="10"/>
<path d="M713.999 1228.91C1075.14 1228.91 1367.9 965.915 1367.9 641.5C1367.9 317.084 1075.14 54.0935 713.999 54.0935C352.862 54.0935 60.1025 317.084 60.1025 641.5C60.1025 965.915 352.862 1228.91 713.999 1228.91Z" stroke="white" stroke-opacity="0.25" stroke-width="0.7539" stroke-miterlimit="10"/>
<path d="M714 1282C1107.78 1282 1427 995.238 1427 641.5C1427 287.762 1107.78 1 714 1C320.221 1 1 287.762 1 641.5C1 995.238 320.221 1282 714 1282Z" stroke="white" stroke-opacity="0.25" stroke-width="0.485" stroke-miterlimit="10"/>
</g>
</svg>
